<?xml version="1.0" encoding="UTF-8" standalone="no"?>
<!-- Created with Inkscape (http://www.inkscape.org/) -->

<svg
   xmlns:dc="http://purl.org/dc/elements/1.1/"
   xmlns:cc="http://creativecommons.org/ns#"
   xmlns:rdf="http://www.w3.org/1999/02/22-rdf-syntax-ns#"
   xmlns:svg="http://www.w3.org/2000/svg"
   xmlns="http://www.w3.org/2000/svg"
   xmlns:sodipodi="http://sodipodi.sourceforge.net/DTD/sodipodi-0.dtd"
   xmlns:inkscape="http://www.inkscape.org/namespaces/inkscape"
   width="210mm"
   height="297mm"
   viewBox="0 0 744.09448819 1052.3622047"
   id="svg2"
   version="1.1"
   inkscape:version="0.91 r13725"
   sodipodi:docname="lens-hood-adapter-outer.svg">
  <defs
     id="defs4" />
  <sodipodi:namedview
     id="base"
     pagecolor="#ffffff"
     bordercolor="#666666"
     borderopacity="1.0"
     inkscape:pageopacity="0.0"
     inkscape:pageshadow="2"
     inkscape:zoom="0.98994949"
     inkscape:cx="541.25389"
     inkscape:cy="386.53212"
     inkscape:document-units="px"
     inkscape:current-layer="layer1"
     showgrid="false"
     inkscape:window-width="2498"
     inkscape:window-height="1577"
     inkscape:window-x="54"
     inkscape:window-y="317"
     inkscape:window-maximized="1" />
  <metadata
     id="metadata7">
    <rdf:RDF>
      <cc:Work
         rdf:about="">
        <dc:format>image/svg+xml</dc:format>
        <dc:type
           rdf:resource="http://purl.org/dc/dcmitype/StillImage" />
        <dc:title />
      </cc:Work>
    </rdf:RDF>
  </metadata>
  <g
     inkscape:label="Layer 1"
     inkscape:groupmode="layer"
     id="layer1">
    <path
       style="fill:none;fill-opacity:1;stroke:#000000;stroke-width:0.35433071;stroke-linecap:round;stroke-linejoin:round;stroke-miterlimit:4;stroke-dasharray:none;stroke-opacity:1"
       d="m 117.16346,255.15602 496.06296,0 c 9.81496,0 17.71654,7.90158 17.71654,17.71654 l 0,549.21262 c 0,9.81496 -7.90158,17.71653 -17.71654,17.71653 l -496.06296,0 c -9.81496,0 -17.716538,-7.90157 -17.716538,-17.71653 l 0,-549.21262 c 0,-9.81496 7.901578,-17.71654 17.716538,-17.71654 z"
       id="rect4136" />
    <path
       style="fill:none;fill-opacity:1;stroke:#000000;stroke-width:0.35433072;stroke-linecap:round;stroke-linejoin:round;stroke-miterlimit:4;stroke-dasharray:none;stroke-opacity:1"
       d="M 566.87197,547.47887 A 201.67703,201.67703 0 0 1 365.19494,749.1559 201.67703,201.67703 0 0 1 163.51791,547.47887 201.67703,201.67703 0 0 1 365.19494,345.80184 201.67703,201.67703 0 0 1 566.87197,547.47887 Z"
       id="path4138"
       inkscape:connector-curvature="0" />
    <path
       style="fill:none;fill-opacity:1;stroke:#000000;stroke-width:0.22137444;stroke-linecap:round;stroke-linejoin:round;stroke-miterlimit:4;stroke-dasharray:none;stroke-opacity:1"
       d="m 126.16394,276.67358 a 5.2042737,5.2042732 0 0 1 -5.20428,5.20428 5.2042737,5.2042732 0 0 1 -5.20427,-5.20428 5.2042737,5.2042732 0 0 1 5.20427,-5.20427 5.2042737,5.2042732 0 0 1 5.20428,5.20427 z"
       id="path4709" />
    <path
       style="fill:none;fill-opacity:1;stroke:#000000;stroke-width:0.22137444;stroke-linecap:round;stroke-linejoin:round;stroke-miterlimit:4;stroke-dasharray:none;stroke-opacity:1"
       d="m 614.63451,276.67358 a 5.2042737,5.2042732 0 0 1 -5.20427,5.20428 5.2042737,5.2042732 0 0 1 -5.20428,-5.20428 5.2042737,5.2042732 0 0 1 5.20428,-5.20427 5.2042737,5.2042732 0 0 1 5.20427,5.20427 z"
       id="path4709-5" />
    <path
       style="fill:none;fill-opacity:1;stroke:#000000;stroke-width:0.22137444;stroke-linecap:round;stroke-linejoin:round;stroke-miterlimit:4;stroke-dasharray:none;stroke-opacity:1"
       d="m 126.16385,818.19202 a 5.2042737,5.2042732 0 0 1 -5.20428,5.20427 5.2042737,5.2042732 0 0 1 -5.20427,-5.20427 5.2042737,5.2042732 0 0 1 5.20427,-5.20428 5.2042737,5.2042732 0 0 1 5.20428,5.20428 z"
       id="path4709-6" />
    <path
       style="fill:none;fill-opacity:1;stroke:#000000;stroke-width:0.22137444;stroke-linecap:round;stroke-linejoin:round;stroke-miterlimit:4;stroke-dasharray:none;stroke-opacity:1"
       d="m 614.63457,818.19202 a 5.2042737,5.2042732 0 0 1 -5.20427,5.20427 5.2042737,5.2042732 0 0 1 -5.20428,-5.20427 5.2042737,5.2042732 0 0 1 5.20428,-5.20428 5.2042737,5.2042732 0 0 1 5.20427,5.20428 z"
       id="path4709-5-0" />
  </g>
</svg>
