<?xml version="1.0" encoding="UTF-8" standalone="no"?>
<!-- Created with Inkscape (http://www.inkscape.org/) -->

<svg
   xmlns:dc="http://purl.org/dc/elements/1.1/"
   xmlns:cc="http://creativecommons.org/ns#"
   xmlns:rdf="http://www.w3.org/1999/02/22-rdf-syntax-ns#"
   xmlns:svg="http://www.w3.org/2000/svg"
   xmlns="http://www.w3.org/2000/svg"
   xmlns:sodipodi="http://sodipodi.sourceforge.net/DTD/sodipodi-0.dtd"
   xmlns:inkscape="http://www.inkscape.org/namespaces/inkscape"
   width="210mm"
   height="297mm"
   viewBox="0 0 744.09448819 1052.3622047"
   id="svg2"
   version="1.1"
   inkscape:version="0.91 r13725"
   sodipodi:docname="lens-hood-adapter-cover.svg">
  <defs
     id="defs4" />
  <sodipodi:namedview
     id="base"
     pagecolor="#ffffff"
     bordercolor="#666666"
     borderopacity="1.0"
     inkscape:pageopacity="0.0"
     inkscape:pageshadow="2"
     inkscape:zoom="1.4142136"
     inkscape:cx="411.94891"
     inkscape:cy="773.2738"
     inkscape:document-units="px"
     inkscape:current-layer="layer1"
     showgrid="false"
     inkscape:window-width="2498"
     inkscape:window-height="1577"
     inkscape:window-x="54"
     inkscape:window-y="317"
     inkscape:window-maximized="1" />
  <metadata
     id="metadata7">
    <rdf:RDF>
      <cc:Work
         rdf:about="">
        <dc:format>image/svg+xml</dc:format>
        <dc:type
           rdf:resource="http://purl.org/dc/dcmitype/StillImage" />
        <dc:title></dc:title>
      </cc:Work>
    </rdf:RDF>
  </metadata>
  <g
     inkscape:label="Layer 1"
     inkscape:groupmode="layer"
     id="layer1">
    <path
       style="fill:none;fill-opacity:1;stroke:#000000;stroke-width:0.1;stroke-linecap:round;stroke-linejoin:round;stroke-miterlimit:4;stroke-dasharray:none;stroke-opacity:1"
       d="M 150.875 255.15625 C 145.00437 255.17743 140.28516 259.90937 140.28516 265.78516 L 140.28516 276.6875 L 140.2793 276.6875 A 19.326733 19.326733 0 0 1 120.96875 296.01367 L 120.96875 296.01562 L 110.07422 296.01562 C 104.19909 296.01562 99.469491 300.73574 99.447266 306.60547 L 99.447266 775.49609 L 99.449219 775.49609 L 99.449219 788.33203 C 99.449219 794.221 104.19305 798.96094 110.08203 798.96094 L 120.98438 798.96094 L 120.98438 798.9668 A 19.326733 19.326733 0 0 1 140.31055 818.27734 L 140.3125 818.27734 L 140.3125 829.17188 C 140.3125 835.06086 145.05438 839.80078 150.94336 839.80078 L 168.4668 839.80078 L 566.66016 839.80078 L 566.66016 839.72656 L 579.49609 839.72656 C 585.38506 839.72656 590.125 834.98468 590.125 829.0957 L 590.125 818.19336 L 590.13086 818.19336 A 19.326733 19.326733 0 0 1 609.44141 798.86719 L 609.44141 798.86523 L 620.33594 798.86523 C 626.08047 798.86523 630.71863 794.34962 630.94336 788.66211 L 630.94336 319.45898 L 630.94336 306.62305 C 630.94336 300.73408 626.20148 295.99414 620.3125 295.99414 L 609.41016 295.99414 L 609.41016 295.98828 A 19.326733 19.326733 0 0 1 590.08398 276.67773 L 590.08203 276.67773 L 590.08203 265.7832 C 590.08203 259.90741 585.36087 255.17742 579.49023 255.15625 L 150.875 255.15625 z "
       id="rect4136" />
  </g>
</svg>
